<svg width="17" height="17" viewBox="0 0 17 17" fill="none" xmlns="http://www.w3.org/2000/svg">
<path opacity="0.3" d="M0 1.97475C0 1.40235 0.190378 0.930123 0.571117 0.558081C0.951857 0.186021 1.44684 0 2.05602 0C2.65434 0 3.13842 0.183154 3.50829 0.549495C3.88903 0.927273 4.07941 1.41952 4.07941 2.02626C4.07941 2.57576 3.89448 3.03366 3.52461 3.4C3.14387 3.77778 2.64346 3.96667 2.02339 3.96667H2.00707C1.40875 3.96667 0.924672 3.77778 0.5548 3.4C0.184928 3.02222 0 2.54713 0 1.97475ZM0.212129 17V5.52929H3.83464V17H0.212129ZM5.84171 17H9.46423V10.5949C9.46423 10.1943 9.50775 9.88517 9.59477 9.66768C9.74706 9.27845 9.97824 8.94932 10.2883 8.6803C10.5983 8.41127 10.9872 8.27677 11.455 8.27677C12.6734 8.27677 13.2826 9.14107 13.2826 10.8697V17H16.9051V10.4232C16.9051 8.72895 16.5243 7.44394 15.7628 6.56818C15.0013 5.69242 13.9951 5.25455 12.7441 5.25455C11.3408 5.25455 10.2475 5.8899 9.46423 7.16061V7.19495H9.44791L9.46423 7.16061V5.52929H5.84171C5.86347 5.89562 5.87435 7.03467 5.87435 8.94646C5.87435 10.8582 5.86347 13.5427 5.84171 17Z" fill="white"/>
</svg>
